<svg xmlns="http://www.w3.org/2000/svg" version="1.1" viewBox="290 231 1320 352">
<path transform="translate(1331,236)" d="m0 0h75l12 19 45 72 16 26 12 19 15 24 13 22 14 26 11 24 1 3-3-62v-173h68v321h-75l-16-26-12-19-60-96-15-25-10-18-12-23-14-28 3 56v179h-68z" fill="#107E88"/>
<path transform="translate(649,236)" d="m0 0h141l21 3 16 5 17 8 12 9 7 6 11 14 8 16 5 16 2 12v31l-4 19-5 13-6 11-7 9-11 11-14 9-8 4 8 16 13 24 13 23 10 19 13 23 10 19v1h-74l-6-10-18-34-15-28-17-32-5-9-51-1v114h-67v-306zm66 55v98h55l14-2 12-4 10-6 7-7 5-10 2-7 1-16-2-13-5-12-9-10-10-6-14-4-7-1z" fill="#107E87"/>
<path transform="translate(435,231)" d="m0 0h11l22 2 21 5 16 6 17 9 12 9 12 11 8 9 10 15 7 15 5 16 2 11-1 1h-67l-7-15-7-11-8-8-13-8-11-4-10-2h-25l-16 4-14 7-10 8-8 8-8 13-6 13-4 13-3 16-1 12v22l2 18 5 20 6 14 7 11 9 10 9 8 14 7 13 4 6 1h26l14-3 13-5 10-7 6-5 9-13 5-14 2-11v-6l-69-1v-50h135v45l-1 16-4 21-6 18-9 17-9 12-12 13-13 10-16 9-14 6-17 5-18 3-17 1h-11l-21-2-25-6-19-8-16-10-10-8-12-11-13-17-11-19-6-15-6-20-4-26-1-26 1-20 4-26 6-21 8-18 11-18 9-11 9-10 13-11 19-12 19-8 19-5 13-2z" fill="#107E88"/>
<path transform="translate(956,402)" d="m0 0 5 2 10 19 11 21 8 5 11 4 22 14 16 9 19 10 21 7 18 3h21l19-3 21-6 16-7 13-7 11-8 14-12 11-13 7-10 10-18 3-6 4-3 19-1 5 5 1 7v28l-3 16-6 18-8 16-7 11-12 16-11 12-10 9-13 10-11 7-21 11-19 7-21 5-26 3h-27l-23-3-21-6-13-5-17-9-15-11-19-19-14-21-9-19-3-9v-9l2-7v-9l-16-32-1-5 3-5 16-8zm297 13-3 5v2h10l-1-7zm-301 2-9 5 2 6 8 16 9-3 3-3-8-16-2-5zm291 16-11 15-9 11-10 10-13 10-18 11-21 9-22 6-19 3h-28l-20-4-19-7-20-10-17-10-18-11-8-4-10-4-9-8-13 5v9l-3 11 1 7 8 18 8 13 8 10 11 12 11 9 14 9 17 8 20 6 18 3 15 1h11l25-2 20-4 25-9 17-9 12-8 9-7 10-9 13-13 6-8 7-10 10-19 6-18 3-16v-4l-3 1-5 17-8 16-6 11-7 9-9 10-11 11-14 10-15 9-20 8-18 5-19 3-11 1h-31l-22-3-21-6-12-5-15-8-14-10-10-9-6-7 1-7 6-1 8 7 7 7 12 9 12 7 17 7 13 4 18 3 9 1h24l26-3 17-4 14-5 16-8 12-7 11-9 15-15 9-13 7-12 8-21-1-5z" fill="#6EAE00"/>
<path transform="translate(1137,242)" d="m0 0h91l1 1v22l-1 1h-62v32h58v23h-58v33h52l11 1v23h-92z" fill="#117E86"/>
<path transform="translate(980,242)" d="m0 0h91v24h-63l1 31 58 1v22l-1 1-57 1v32h51l12 1-1 23h-91z" fill="#107E87"/>
<path transform="translate(970,464)" d="m0 0 5 1 4 5 2 4-1 6-3 2h-5l-6-8-1-5z" fill="#6EAE00"/>
</svg>