<svg id="Ebene_1" data-name="Ebene 1" xmlns="http://www.w3.org/2000/svg" viewBox="0 0 579.5 194.79"><defs><style>.cls-1{fill:#f13e3d;}</style></defs><title>Payla_Logo_color_RGB_final</title><path class="cls-1" d="M75.18,5.73A64.93,64.93,0,0,0,10.25,70.66V200.52a65.24,65.24,0,0,0,64.93-64.93,64.93,64.93,0,0,0,0-129.86Zm18,86.17H84.94a2.69,2.69,0,0,1-3-3q0-12,0-24c0-.27,0-.55,0-.83q-12.39,0-24.77,0C55,64,54,63,54,60.85c0-2.78,0-5.56,0-8.34a3.11,3.11,0,0,1,.77-2.32A3.2,3.2,0,0,1,57,49.43c33.53,0,34.44,0,36.25,0a3.53,3.53,0,0,1,2.5,1,3.35,3.35,0,0,1,.67,2.26c0,2.19,0,33.89,0,36C96.42,90.93,95.45,91.9,93.2,91.9Z" transform="translate(-10.25 -5.73)"/><path class="cls-1" d="M194.16,66.55v8.37c.62-.09,1,0,1.14-.18C219,54.37,251.54,63,262.14,92.38c8.39,23.3-2.14,49.72-24.08,58.9-14.09,5.89-27.84,5.06-40.09-5.22a8.94,8.94,0,0,0-1.41-.91c-.08-.05-.26,0-.8.17v34.56H175.29V66.55Zm.31,42.81c.14,14.51,11.7,26.56,25.29,26.35,13.14-.21,24.61-12.81,24.46-26.89-.15-14.34-11.51-26.54-24.73-26.54C205.68,82.28,194.33,94.56,194.47,109.36Z" transform="translate(-10.25 -5.73)"/><path class="cls-1" d="M345.05,76V66.52h18.86v85H345.36c-.16-2.76-.33-5.64-.47-7.95-5.87,3-11.43,6.93-17.59,9-21.15,6.94-42.7-4.05-50.28-25-8.25-22.84-1.12-46.65,17.4-58.07,15.95-9.84,35.19-7.8,48.76,5.16C343.55,75,344,75.22,345.05,76Zm-.57,32.62c-.06-14.83-11.18-26.53-25.1-26.38s-25.06,12.17-25.05,27.11c0,14.51,11.31,26.28,25.31,26.34S344.54,124,344.48,108.65Z" transform="translate(-10.25 -5.73)"/><path class="cls-1" d="M571,151.68v-8.2c-5.87,3.1-11.3,6.89-17.33,9-18.72,6.46-37.86-1.07-47.5-18.49C497.51,118.3,497,102,505.05,86.08c12-23.78,44.3-31.62,65.75-10.17.16-3.29.29-6.16.44-9.34h18.51v85.11Zm-.65-42.75c0-15.1-10.63-26.61-24.69-26.66s-25.21,11.89-25.29,26.83,11.21,26.65,25.4,26.62C559.64,135.69,570.31,124.07,570.34,108.93Z" transform="translate(-10.25 -5.73)"/><path class="cls-1" d="M388,180.22c4.14-9.62,7.54-18.83,12-27.49,3.27-6.31,2.85-11.59.14-18-9.07-21.33-17.52-42.93-26.19-64.43-.46-1.15-.79-2.34-1.37-4.07,7.63,0,14.73-.13,21.82.14,1,0,2.29,1.83,2.74,3.06,5.39,14.84,10.64,29.73,15.94,44.6.62,1.73,1.28,3.44,2.26,6.05.9-2.09,1.54-3.41,2.05-4.78C423.15,100,429,84.75,434.61,69.4c.89-2.39,2.06-3.28,4.62-3.22,6.53.17,13.07.06,20.27.06-3.38,7.87-6.5,15.16-9.64,22.43-12.51,29-25.12,58-37.45,87-1.55,3.66-3.41,4.84-7.22,4.6C399.69,180,394.17,180.22,388,180.22Z" transform="translate(-10.25 -5.73)"/><path class="cls-1" d="M469.19,38h20.06V151.59H469.19Z" transform="translate(-10.25 -5.73)"/></svg>