<svg id="Layer_1" data-name="Layer 1" xmlns="http://www.w3.org/2000/svg" viewBox="0 0 218.12 101.44"><title>Artboard 1</title><path d="M47.11,35.57H34.7c-4.49,0-5-2.25-5-3.95,0-3.52,1.83-5,6.32-5H60.05V16.94H34.63c-11.28,0-16.54,4.62-16.54,14.55,0,9.33,5,13.68,15.73,13.68H44.88c4.35,0,5.75,1,5.75,4.27,0,2.68-1,4.14-6.37,4.14H19.89v9.72H45.75c11.24,0,16.48-4.53,16.48-14.24S57.85,35.57,47.11,35.57Z" fill="#00325c"></path><polygon points="99.96 16.94 86.84 48.7 74.02 16.94 61.43 16.94 81.65 63.31 92.51 63.31 111.89 16.94 99.96 16.94" fill="#00325c"></polygon><path d="M131.29,26.49h16.29V16.94H131.11c-14.93,0-21.88,7.62-21.88,24,0,8.45,2.35,14.43,7.17,18.26s9.36,4.12,14.47,4.12h16.73V53.77H131.29c-6.74,0-9.44-2.5-9.71-9.15h26V35.08H121.7C122.28,29.22,125.35,26.49,131.29,26.49Z" fill="#00325c"></path><path d="M169.15,16.94,149.51,63.31H161.4l4-10.62h18.15l4.1,10.63H200L180.25,16.94Zm-.05,26,5.25-13.79L179.79,43Z" fill="#00325c"></path><rect x="19.6" y="72.15" width="180.42" height="12.02" rx="2.2" ry="2.2" fill="#00aece"></rect></svg>
