<?xml version="1.0" encoding="UTF-8"?>
<svg version="1.1" xmlns="http://www.w3.org/2000/svg" viewBox="0 0 81 80">
<path d="M0 0 C8.21397136 7.37720504 13.24895481 15.83887974 14.046875 27.046875 C14.15125528 39.82302157 10.46665766 49.44111456 1.7578125 58.90234375 C-6.46954667 66.7191902 -15.97299555 69.17436969 -27.09326172 69.11352539 C-37.09437581 68.77340748 -45.2251037 65.09389105 -52.62109375 58.4375 C-62.1474048 47.95855784 -65.02140927 39.22888179 -64.5234375 25.13671875 C-63.8584927 15.36555176 -59.43246097 7.83919786 -52.7109375 0.8828125 C-37.3380819 -12.14817521 -15.70056078 -12.68732185 0 0 Z M-52.12109375 10.6875 C-57.02448423 18.38638667 -59.02634674 25.59671996 -58.12109375 34.6875 C-55.54308196 45.30890859 -50.53794277 52.60865517 -41.3671875 58.4609375 C-33.58764266 62.70924546 -24.89809695 63.80850087 -16.3046875 61.46484375 C-7.17965102 58.21639606 -0.67572938 52.70534793 4.265625 44.33984375 C7.71457844 36.89736527 8.21376808 28.81279837 6.1484375 20.8828125 C2.31923581 10.59867081 -3.36296131 4.35949863 -13.31640625 -0.3515625 C-28.00896935 -5.98634476 -42.10976299 -0.91121293 -52.12109375 10.6875 Z " fill="#4C4948" transform="translate(66.12109375,10.3125)"/>
<path d="M0 0 C7.76910438 5.05307602 12.42031748 10.75251962 14.5546875 19.98828125 C15.613152 27.94928555 13.95934999 34.40143612 10.234375 41.4375 C4.3912985 48.54394439 -1.5877864 53.53084891 -10.8984375 54.5625 C-20.12375822 54.94000673 -27.28937812 52.80595686 -34.453125 46.9375 C-39.70977979 41.98881084 -42.71738581 36.61435278 -43.31640625 29.3671875 C-43.52082366 20.43737416 -42.54191086 13.33549101 -36.640625 6.375 C-35.795 5.67375 -34.949375 4.9725 -34.078125 4.25 C-33.294375 3.54875 -32.510625 2.8475 -31.703125 2.125 C-22.59893046 -4.3779961 -10.03393009 -5.431902 0 0 Z M-31.59765625 12.234375 C-35.07564402 16.96957735 -36.39999161 21.9686094 -36.078125 27.8125 C-35.09364861 33.93337497 -32.00199122 38.46690448 -27.515625 42.625 C-21.1481032 46.87001453 -15.66451286 46.98267071 -8.078125 46.25 C-2.37836708 44.55629969 1.64579945 40.03327964 4.921875 35.25 C7.48032019 29.78423074 7.94238334 24.45023489 6.1171875 18.7265625 C3.21838269 12.06930732 -0.64199631 8.51627505 -7.078125 5.25 C-16.46342464 2.12156679 -25.0813398 5.13651086 -31.59765625 12.234375 Z " fill="#4C4948" transform="translate(55.078125,14.75)"/>
</svg>
