<svg xmlns="http://www.w3.org/2000/svg" fill="none" height="20" viewBox="0 0 89 20" width="89"><path d="M37.9097 7.12594V19.6367H32.7477V9.17474C32.7477 6.5967 30.8291 5.20542 29.0245 5.20542C27.4611 5.20542 26.2394 5.95264 25.0662 7.62917V19.6376H19.9043V10.4046C19.3831 10.5849 18.8477 10.7365 18.3211 10.854C18.0449 16.1787 14.2813 19.9749 9.16865 19.9749C3.856 19.9749 0 15.8755 0 10.2278V0.432364H5.16286V10.2278C5.16286 12.3421 6.21229 14.8116 9.16954 14.8116C11.89 14.8116 12.9959 12.7216 13.1547 10.74C11.0101 9.83764 9.6826 7.66326 9.6826 4.77574C9.6826 1.78507 11.9124 0.026013 14.0633 0.026013C16.8152 0.026013 18.3382 2.76731 18.3238 5.49157C18.3238 5.49157 19.0871 5.21798 19.9043 4.75422V0.431467H25.0662V2.0793C26.8323 0.642267 28.463 0 30.3448 0C32.4239 0 34.3407 0.727484 35.7409 2.0488C37.1401 3.36921 37.9097 5.17223 37.9097 7.12594ZM39.9682 4.98385H48.7081L39.4991 15.9275L39.4919 15.9356V19.6367H55.8559V15.0924H46.5949L55.8487 4.00251L55.8559 3.99444V0.432364H39.9682V4.98385ZM72.5814 2.68658C74.3125 4.44295 75.2274 6.93488 75.2274 9.89326V11.6747H61.3587C61.7166 14.0438 63.4199 15.4566 65.9206 15.4566C67.9988 15.4566 69.7963 14.6206 70.6108 13.2759L70.6242 13.2526L70.6484 13.2634L74.6955 15.0861L74.6811 15.1148C73.0639 18.2194 69.8448 20 65.8471 20C60.1066 20 56.2497 15.9966 56.2497 10.0377C56.2497 7.2282 57.2731 4.66631 59.1316 2.82293C60.9174 1.05131 63.3024 0.0753495 65.848 0.0753495C68.5702 0.0762465 70.8978 0.978651 72.5814 2.68658ZM70.2009 7.63904C69.7766 5.65662 68.1522 4.47524 65.848 4.47524C63.7455 4.47524 62.1292 5.65662 61.5175 7.63904H70.2009ZM88.1614 0.291532C87.4771 0.0762469 86.6985 0.076246 86.6985 0.076246C85.0051 0.076246 83.3717 0.730175 81.9716 1.96717V0.432364H76.8096V19.6376H81.9716V7.72605C82.9896 5.79386 84.5521 4.72999 86.3711 4.72999C86.3711 4.72999 87.1891 4.73717 87.6986 4.88697L88.1614 0.291532Z" fill="#fc1154"/></svg>