<svg xmlns="http://www.w3.org/2000/svg" width="76" height="44" viewBox="0 0 76 44" fill="none">
<g filter="url(#filter0_f_386_1722)">
<rect x="6" y="6" width="64" height="32" rx="3.5" fill="url(#paint0_linear_386_1722)"/>
</g>
<rect x="6" y="6" width="64" height="32" rx="3.5" fill="#1C1C1E"/>
<path fill-rule="evenodd" clip-rule="evenodd" d="M26.2685 19.1252C26.2685 19.6817 26.2072 20.2906 26.0901 20.8597L26.092 20.8579C27.192 21.7225 27.8423 23.0347 27.8423 24.423C27.8423 26.935 25.7612 28.9795 23.2062 28.9795H17V19.2231C17 17.9707 17.5314 16.76 18.4587 15.9027C19.3227 15.1052 20.4487 14.6666 21.6287 14.6666C21.729 14.6666 21.8312 14.6703 21.9315 14.6757C24.3211 14.8243 26.2685 16.8198 26.2685 19.1252ZM21.3035 26.8481H23.2025C24.5608 26.8481 25.6664 25.7606 25.6664 24.4248C25.6664 23.7578 25.3933 23.1561 24.951 22.7175C24.113 24.2871 22.9182 25.641 21.3035 26.8481ZM23.9922 20.2653C24.0517 19.9281 24.0982 19.5276 24.0982 19.1234C24.0982 17.9254 23.065 16.8832 21.7959 16.8053C21.1065 16.7618 20.4506 16.9938 19.9489 17.4578C19.4472 17.9218 19.1703 18.5489 19.1703 19.2249V20.2653H23.9922ZM23.2025 21.9998H19.1703H19.1666V26.1974C21.1121 24.9776 22.4481 23.6328 23.3382 22.0034C23.2936 21.9998 23.2471 21.9998 23.2025 21.9998ZM35.2131 14.9186V26.781C35.2131 28.3469 36.0976 29.2296 37.5934 29.2296C38.2029 29.2296 38.7752 29.0846 39.1803 28.9052L38.6637 27.2849C38.5169 27.3374 38.3311 27.3737 38.1285 27.3737C37.7216 27.3737 37.5748 27.158 37.5748 26.7085V14.6666L35.2131 14.9186ZM40.9102 14.9186V26.781C40.9102 28.3469 41.7946 29.2296 43.2905 29.2296C43.8999 29.2296 44.4722 29.0846 44.8773 28.9052L44.3608 27.2849C44.214 27.3374 44.0281 27.3737 43.8256 27.3737C43.4187 27.3737 43.2719 27.158 43.2719 26.7085V14.6666L40.9102 14.9186ZM59.6132 24.9179H53.5556C53.7377 26.8391 54.65 27.4626 55.9284 27.4626C56.785 27.4626 57.4967 27.1962 58.3366 26.6271L59.3028 27.9266C58.3533 28.6751 57.1864 29.1899 55.7259 29.1899C52.7324 29.1899 51.127 27.2506 51.127 24.2763C51.127 21.3021 52.6785 19.2396 55.4156 19.2396C58.1526 19.2396 59.667 21.0194 59.667 23.9918C59.667 24.2372 59.6438 24.5292 59.6251 24.7642L59.6187 24.8449L59.6132 24.9179ZM57.309 23.3212C57.309 21.7715 56.7442 20.8472 55.4286 20.8472C54.3341 20.8472 53.641 21.5595 53.5128 23.4281H57.309V23.3212ZM32.6974 16.0891C32.6974 16.854 32.0935 17.4593 31.2183 17.4593V17.4575C30.3599 17.4575 29.7578 16.8703 29.7578 16.0873C29.7578 15.3043 30.3413 14.699 31.2183 14.699C32.0954 14.699 32.6974 15.3243 32.6974 16.0891ZM30.0713 19.2854V28.8497H32.433V19.0353L30.0713 19.2854ZM49.1574 16.0891C49.1574 16.854 48.5535 17.4593 47.6783 17.4593V17.4575C46.8198 17.4575 46.2178 16.8703 46.2178 16.0873C46.2178 15.3043 46.8031 14.699 47.6783 14.699C48.5535 14.699 49.1574 15.3243 49.1574 16.0891ZM46.4697 19.2854V28.8497H48.8314V19.0353L46.4697 19.2854Z" fill="white"/>
<defs>
<filter id="filter0_f_386_1722" x="0" y="0" width="76" height="44" filterUnits="userSpaceOnUse" color-interpolation-filters="sRGB">
<feFlood flood-opacity="0" result="BackgroundImageFix"/>
<feBlend mode="normal" in="SourceGraphic" in2="BackgroundImageFix" result="shape"/>
<feGaussianBlur stdDeviation="3" result="effect1_foregroundBlur_386_1722"/>
</filter>
<linearGradient id="paint0_linear_386_1722" x1="67.0537" y1="7.85094" x2="43.6798" y2="53.5032" gradientUnits="userSpaceOnUse">
<stop stop-color="#9E5BFC"/>
<stop offset="0.51" stop-color="#DE54B5"/>
<stop offset="1" stop-color="#FFD645"/>
</linearGradient>
</defs>
</svg>
