<?xml version="1.0" standalone="no"?>
<!DOCTYPE svg PUBLIC "-//W3C//DTD SVG 20010904//EN"
 "http://www.w3.org/TR/2001/REC-SVG-20010904/DTD/svg10.dtd">
<svg version="1.0" xmlns="http://www.w3.org/2000/svg"
 width="218.000000pt" height="220.000000pt" viewBox="0 0 218.000000 220.000000"
 preserveAspectRatio="xMidYMid meet">

<g transform="translate(0.000000,220.000000) scale(0.100000,-0.100000)"
fill="#000000" stroke="none">
<path d="M500 2129 c-128 -15 -289 -115 -344 -214 -9 -16 -25 -43 -34 -60 -29
-48 -47 -116 -47 -175 l0 -55 202 0 c111 1 199 -3 197 -7 -3 -4 -12 -8 -20 -8
-69 0 -304 -168 -304 -217 0 -7 -4 -13 -9 -13 -5 0 -21 -30 -36 -67 -21 -52
-29 -91 -33 -163 -5 -113 8 -187 49 -269 31 -62 134 -181 156 -181 7 0 13 -4
13 -10 0 -5 5 -10 12 -10 6 0 19 -7 29 -16 9 -8 23 -16 31 -18 7 -1 19 -5 25
-9 13 -8 35 -14 88 -24 17 -2 32 -7 34 -9 2 -2 -95 -4 -217 -4 l-222 0 0 -43
c0 -93 54 -220 128 -299 44 -47 164 -129 209 -142 48 -15 70 -19 121 -23 l52
-5 1 214 c1 189 2 208 13 168 24 -86 70 -164 136 -230 197 -199 518 -200 718
-2 57 55 109 131 117 169 2 10 10 38 18 63 14 43 15 33 16 -167 l1 -213 38 0
c131 1 306 100 379 215 15 25 32 45 36 45 5 0 5 4 2 10 -3 5 -1 10 6 10 7 0
10 3 6 6 -3 4 1 20 9 36 20 38 25 60 31 131 l5 57 -228 1 c-218 1 -226 1 -167
14 116 25 229 102 306 207 15 20 41 70 57 112 26 64 30 87 30 168 0 175 -67
317 -199 421 -33 26 -139 75 -196 90 -45 11 -30 13 170 12 l220 0 -2 65 c-4
205 -202 412 -420 439 -37 5 -71 7 -75 4 -5 -2 -8 -102 -9 -221 -1 -153 -4
-204 -10 -172 -22 117 -144 280 -249 335 -176 92 -417 72 -564 -45 -42 -33
-116 -115 -116 -128 0 -5 -7 -15 -15 -22 -9 -7 -13 -15 -11 -18 3 -2 0 -14 -7
-26 -6 -11 -19 -46 -29 -76 l-16 -55 -1 211 c-1 160 -4 213 -13 216 -7 2 -38
1 -68 -3z m490 -510 c0 -4 -16 -10 -35 -13 -66 -13 -168 -75 -233 -142 -64
-65 -112 -150 -131 -232 -6 -25 -9 29 -10 174 -1 116 1 213 3 215 7 7 406 5
406 -2z m488 2 l122 -1 -1 -212 -1 -213 -16 55 c-38 125 -147 264 -244 311
-69 33 -109 49 -128 49 -11 0 -20 3 -20 8 0 4 37 7 83 6 45 -1 137 -2 205 -3z
m122 -801 l0 -220 -227 1 c-126 1 -217 4 -203 6 193 32 368 194 413 382 6 28
13 51 14 51 2 0 3 -99 3 -220z m-958 48 c65 -122 184 -213 330 -252 50 -14 42
-15 -169 -15 l-223 -1 1 218 c0 208 1 215 15 163 8 -30 29 -80 46 -113z"/>
</g>
</svg>
