<?xml version="1.0" standalone="no"?>
<!DOCTYPE svg PUBLIC "-//W3C//DTD SVG 20010904//EN"
"http://www.w3.org/TR/2001/REC-SVG-20010904/DTD/svg10.dtd">
<svg version="1.0" xmlns="http://www.w3.org/2000/svg"
width="200.000000pt" height="200.000000pt" viewBox="0 0 200.000000 200.000000"
preserveAspectRatio="xMidYMid meet">

<g transform="translate(0.000000,200.000000) scale(0.100000,-0.100000)"
fill="#000000" stroke="none">
<path d="M915 1994 c-11 -2 -45 -9 -75 -15 -30 -6 -97 -31 -149 -56 -154 -74
-273 -210 -331 -378 -37 -108 -41 -205 -38 -880 l3 -650 67 2 c196 4 422 159
516 353 45 91 72 182 72 240 0 49 8 56 65 64 98 13 151 29 235 68 70 34 100
56 170 127 165 166 230 372 186 591 -28 137 -81 235 -184 338 -95 95 -183 148
-297 177 -62 16 -204 28 -240 19z m283 -448 c9 -5 12 -66 12 -211 0 -231 2
-225 -80 -225 -78 0 -80 3 -80 155 l0 134 -137 3 -138 3 -3 65 c-4 92 -8 91
223 87 105 -2 197 -7 203 -11z"/>
</g>
</svg>
