<svg width="924" height="104" viewBox="0 0 924 104" fill="none" xmlns="http://www.w3.org/2000/svg">
<path d="M924 0.0439729L880.446 57.343V103.956H856.485V57.343L812.931 0.0439729H842.634L869.138 35.341L895.437 0.0439729H924ZM681.465 0.0439729V20.5655H719.862V104H743.618V20.5215H781.971V0L681.465 0.0439729ZM562.638 20.5655H597.98C608.485 20.5655 613.365 24.5379 613.365 32.937C613.365 41.3362 608.485 45.3085 597.98 45.3085H562.638V20.5655ZM642.616 104L615.338 63.9538C629.948 59.9814 637.575 49.4422 637.575 32.937C637.575 11.536 624.63 0.0879457 600.566 0.0879457H538.881V104H562.638V65.7421H588.834L614.578 103.956L642.616 104ZM379.626 0.0879457V104H473.294V83.4785H403.426V61.931H463.461V41.4095H403.426V20.5215H473.338V0L379.626 0.0879457ZM305.112 0.0879457L274.547 76.9117L243.777 0.0586454H218.004L261.719 103.971H286.089L329.804 0.0586454L305.112 0.0879457ZM144.104 103.956H167.861V0.0439729H144.104V103.956ZM0 103.956H23.7568V23.8636H0V103.956ZM23.7568 23.8782H103.574V0.0293003H23.7568V23.8782Z" fill="#527A42"/>
</svg>

