<svg xmlns="http://www.w3.org/2000/svg" id="a" viewBox="0 0 184 106"><defs><style>.b{fill:#fff;}.c{fill:#253044;}.d{fill:#1e82f0;}</style></defs><path class="d" d="M99.71,39.73c-2.73,4.73-8.79,6.36-13.52,3.62-4.73-2.73-6.36-8.79-3.62-13.52,2.73-4.73,8.79-6.36,13.52-3.62,4.74,2.73,6.36,8.79,3.62,13.52"/><path class="d" d="M77.23,47.71c-1.64,2.84-5.27,3.82-8.12,2.17-2.84-1.64-3.82-5.27-2.17-8.12,1.64-2.84,5.27-3.82,8.12-2.17,2.84,1.64,3.82,5.27,2.17,8.12"/><path class="c" d="M40.18,75.26c-.77,1.26-1.9,2.27-3.39,3.02-1.49,.75-3.3,1.13-5.42,1.13-3.2,0-5.83-.78-7.9-2.34-2.07-1.56-3.2-3.74-3.39-6.53h7.34c.11,1.08,.49,1.92,1.15,2.54,.66,.62,1.5,.93,2.52,.93,.89,0,1.59-.24,2.1-.73,.51-.48,.77-1.13,.77-1.94,0-.73-.24-1.33-.71-1.82-.47-.48-1.06-.88-1.75-1.19-.7-.31-1.67-.68-2.9-1.11-1.8-.62-3.27-1.22-4.42-1.79-1.14-.58-2.12-1.44-2.94-2.58-.82-1.14-1.23-2.63-1.23-4.46,0-1.69,.43-3.16,1.29-4.4,.86-1.24,2.05-2.18,3.57-2.84,1.52-.66,3.26-.99,5.22-.99,3.17,0,5.69,.75,7.56,2.26,1.87,1.51,2.92,3.58,3.17,6.21h-7.46c-.13-.94-.48-1.69-1.03-2.24-.55-.55-1.3-.83-2.24-.83-.81,0-1.46,.22-1.96,.65-.5,.43-.75,1.06-.75,1.89,0,.67,.22,1.24,.67,1.71,.44,.47,1,.85,1.67,1.15,.67,.3,1.64,.67,2.9,1.13,1.83,.62,3.32,1.23,4.48,1.83,1.16,.61,2.15,1.49,2.98,2.64,.83,1.16,1.25,2.66,1.25,4.52,0,1.51-.38,2.89-1.15,4.15h0Z"/><path class="c" d="M58.5,79.13l-6.73-9.56v9.56h-6.9v-28.96h6.9v15.5l6.73-9.03h8.11l-9.07,11.25,9.27,11.25h-8.31Z"/><path class="c" d="M75.54,56.63v22.5h-6.9v-22.5h6.9Z"/><path class="c" d="M98.79,57.74c1.47,.93,2.62,2.26,3.47,3.99,.85,1.73,1.27,3.78,1.27,6.15s-.42,4.38-1.27,6.13c-.85,1.75-2,3.08-3.47,4.01-1.46,.93-3.13,1.39-4.98,1.39-1.72,0-3.2-.39-4.44-1.17-1.24-.78-2.14-1.84-2.7-3.19v10.97h-6.9v-29.4h6.9v4.07c.56-1.34,1.46-2.41,2.7-3.19,1.24-.78,2.71-1.17,4.44-1.17,1.85,0,3.52,.46,4.98,1.39h0Zm-10.77,6.13c-.93,.98-1.39,2.32-1.39,4.01s.46,3,1.39,3.99c.93,1,2.12,1.49,3.57,1.49s2.67-.48,3.57-1.45c.9-.97,1.35-2.31,1.35-4.03s-.45-3.06-1.35-4.03c-.9-.97-2.09-1.45-3.57-1.45s-2.64,.49-3.57,1.47Z"/><path class="d" d="M160.02,64.55c-8.2,14.21-26.37,19.07-40.57,10.87-14.21-8.2-19.07-26.37-10.87-40.57,8.2-14.21,26.37-19.07,40.57-10.87,14.21,8.2,19.07,26.37,10.87,40.57Z"/><path class="b" d="M117.77,51.38v5.77h-3.98v-16.46h6.45c1.96,0,3.44,.49,4.47,1.45,1.02,.97,1.54,2.28,1.54,3.92,0,1.02-.23,1.94-.69,2.73-.46,.8-1.14,1.43-2.04,1.89-.9,.46-1.99,.69-3.28,.69h-2.47Zm4.42-5.31c0-1.44-.8-2.16-2.4-2.16h-2.02v4.28h2.02c1.6,0,2.4-.71,2.4-2.12h0Z"/><path class="b" d="M135.19,44.68c.71,.45,1.24,1.06,1.58,1.84v-2.35h3.96v12.99h-3.96v-2.35c-.34,.78-.87,1.39-1.58,1.84-.71,.45-1.57,.67-2.56,.67-1.07,0-2.03-.27-2.87-.8-.85-.54-1.51-1.31-2-2.32-.49-1.01-.73-2.19-.73-3.54s.24-2.55,.73-3.55c.49-1,1.16-1.77,2-2.3,.84-.54,1.8-.8,2.87-.8,.99,0,1.85,.23,2.56,.68h0Zm-3.34,3.65c-.52,.56-.78,1.33-.78,2.33s.26,1.77,.78,2.33c.52,.56,1.21,.84,2.06,.84s1.52-.29,2.06-.86c.53-.57,.8-1.34,.8-2.3s-.27-1.75-.8-2.32c-.54-.57-1.22-.85-2.06-.85s-1.54,.28-2.06,.84h0Z"/><path class="b" d="M156.87,44.17h-4.4l-2.91,7.96-3.12-7.96h-4.45l5.45,12.5-2.03,4.45h4.3l7.16-16.95Z"/></svg>
