<?xml version="1.0" encoding="UTF-8"?>
<svg version="1.1" xmlns="http://www.w3.org/2000/svg" viewBox="0 0 198 196">
<path d="M0 0 C65.34 0 130.68 0 198 0 C198 64.68 198 129.36 198 196 C132.66 196 67.32 196 0 196 C0 131.32 0 66.64 0 0 Z " fill="#FDCD01" transform="translate(0,0)"/>
<path d="M0 0 C6.27 0 12.54 0 19 0 C19 1.98 19 3.96 19 6 C20.98 6 22.96 6 25 6 C25 9.96 25 13.92 25 18 C26.98 18 28.96 18 31 18 C31 20.31 31 22.62 31 25 C35.29 25 39.58 25 44 25 C44 16.75 44 8.5 44 0 C77 0 110 0 144 0 C144 12.21 144 24.42 144 37 C114.96 37 85.92 37 56 37 C56 41.29 56 45.58 56 50 C58.31 50 60.62 50 63 50 C63 51.98 63 53.96 63 56 C64.98 56 66.96 56 69 56 C69 57.98 69 59.96 69 62 C70.98 62 72.96 62 75 62 C75 66.29 75 70.58 75 75 C76.98 75 78.96 75 81 75 C81 76.98 81 78.96 81 81 C83.31 81 85.62 81 88 81 C88 82.98 88 84.96 88 87 C89.98 87 91.96 87 94 87 C94 113.73 94 140.46 94 168 C77.5 168 61 168 44 168 C44 124.77 44 81.54 44 37 C29.48 37 14.96 37 0 37 C0 24.79 0 12.58 0 0 Z " fill="#131415" transform="translate(29,17)"/>
<path d="M0 0 C4.29 0 8.58 0 13 0 C13 1.98 13 3.96 13 6 C14.98 6 16.96 6 19 6 C19 7.98 19 9.96 19 12 C20.98 12 22.96 12 25 12 C25 16.29 25 20.58 25 25 C26.98 25 28.96 25 31 25 C31 26.98 31 28.96 31 31 C33.31 31 35.62 31 38 31 C38 32.98 38 34.96 38 37 C39.98 37 41.96 37 44 37 C44 61.75 44 86.5 44 112 C29.48 112 14.96 112 0 112 C0 75.04 0 38.08 0 0 Z " fill="#131415" transform="translate(79,67)"/>
<path d="M0 0 C6.27 0 12.54 0 19 0 C19 1.98 19 3.96 19 6 C20.98 6 22.96 6 25 6 C25 9.96 25 13.92 25 18 C26.98 18 28.96 18 31 18 C31 20.31 31 22.62 31 25 C35.29 25 39.58 25 44 25 C44 16.75 44 8.5 44 0 C45.98 0 47.96 0 50 0 C50 12.21 50 24.42 50 37 C51.98 37 53.96 37 56 37 C56 41.29 56 45.58 56 50 C54.02 50 52.04 50 50 50 C50 86.96 50 123.92 50 162 C64.52 162 79.04 162 94 162 C94 163.98 94 165.96 94 168 C77.5 168 61 168 44 168 C44 124.77 44 81.54 44 37 C29.48 37 14.96 37 0 37 C0 24.79 0 12.58 0 0 Z " fill="#9C8006" transform="translate(29,17)"/>
<path d="M0 0 C31.02 0 62.04 0 94 0 C94 12.21 94 24.42 94 37 C62.98 37 31.96 37 0 37 C0 35.02 0 33.04 0 31 C29.04 31 58.08 31 88 31 C88 22.75 88 14.5 88 6 C58.96 6 29.92 6 0 6 C0 4.02 0 2.04 0 0 Z " fill="#332C12" transform="translate(79,17)"/>
<path d="M0 0 C6.27 0 12.54 0 19 0 C19 1.98 19 3.96 19 6 C20.98 6 22.96 6 25 6 C25 9.96 25 13.92 25 18 C26.98 18 28.96 18 31 18 C31 20.31 31 22.62 31 25 C33.31 25 35.62 25 38 25 C38 28.96 38 32.92 38 37 C25.46 37 12.92 37 0 37 C0 24.79 0 12.58 0 0 Z " fill="#131415" transform="translate(29,17)"/>
<path d="M0 0 C31.02 0 62.04 0 94 0 C94 2.31 94 4.62 94 7 C62.98 7 31.96 7 0 7 C0 4.69 0 2.38 0 0 Z " fill="#E3B802" transform="translate(79,10)"/>
<path d="M0 0 C29.04 0 58.08 0 88 0 C88 1.98 88 3.96 88 6 C61.27 6 34.54 6 7 6 C7 8.31 7 10.62 7 13 C4.69 13 2.38 13 0 13 C0 8.71 0 4.42 0 0 Z " fill="#DFB502" transform="translate(85,54)"/>
<path d="M0 0 C1.98 0 3.96 0 6 0 C6 24.75 6 49.5 6 75 C4.02 75 2.04 75 0 75 C0 50.25 0 25.5 0 0 Z " fill="#EFC101" transform="translate(123,110)"/>
<path d="M0 0 C1.98 0 3.96 0 6 0 C6 24.75 6 49.5 6 75 C4.02 75 2.04 75 0 75 C0 50.25 0 25.5 0 0 Z " fill="#453B11" transform="translate(117,104)"/>
<path d="M0 0 C2.31 0 4.62 0 7 0 C7 3.96 7 7.92 7 12 C-5.54 12 -18.08 12 -31 12 C-31 10.02 -31 8.04 -31 6 C-20.77 6 -10.54 6 0 6 C0 4.02 0 2.04 0 0 Z " fill="#2E2913" transform="translate(60,42)"/>
<path d="M0 0 C14.52 0 29.04 0 44 0 C44 1.98 44 3.96 44 6 C29.48 6 14.96 6 0 6 C0 4.02 0 2.04 0 0 Z " fill="#7C660B" transform="translate(79,179)"/>
<path d="M0 0 C14.52 0 29.04 0 44 0 C44 1.98 44 3.96 44 6 C29.48 6 14.96 6 0 6 C0 4.02 0 2.04 0 0 Z " fill="#DDB302" transform="translate(29,54)"/>
<path d="M0 0 C1.98 0 3.96 0 6 0 C6 12.21 6 24.42 6 37 C4.02 37 2.04 37 0 37 C0 24.79 0 12.58 0 0 Z " fill="#393212" transform="translate(167,17)"/>
<path d="M0 0 C1.98 0 3.96 0 6 0 C6 12.21 6 24.42 6 37 C4.02 37 2.04 37 0 37 C0 24.79 0 12.58 0 0 Z " fill="#907809" transform="translate(23,17)"/>
<path d="M0 0 C1.98 0 3.96 0 6 0 C6 12.21 6 24.42 6 37 C4.02 37 2.04 37 0 37 C0 24.79 0 12.58 0 0 Z " fill="#E7BB02" transform="translate(173,17)"/>
<path d="M0 0 C6.27 0 12.54 0 19 0 C19 1.98 19 3.96 19 6 C12.73 6 6.46 6 0 6 C0 4.02 0 2.04 0 0 Z " fill="#332C12" transform="translate(29,17)"/>
<path d="M0 0 C1.98 0 3.96 0 6 0 C6 1.98 6 3.96 6 6 C7.98 6 9.96 6 12 6 C12 7.98 12 9.96 12 12 C8.04 12 4.08 12 0 12 C0 8.04 0 4.08 0 0 Z " fill="#201E14" transform="translate(92,73)"/>
<path d="M0 0 C4.29 0 8.58 0 13 0 C13 2.31 13 4.62 13 7 C8.71 7 4.42 7 0 7 C0 4.69 0 2.38 0 0 Z " fill="#E3B802" transform="translate(29,10)"/>
<path d="M0 0 C3.96 0 7.92 0 12 0 C12 1.98 12 3.96 12 6 C8.04 6 4.08 6 0 6 C0 4.02 0 2.04 0 0 Z " fill="#BD9A04" transform="translate(73,54)"/>
<path d="M0 0 C3.96 0 7.92 0 12 0 C12 1.98 12 3.96 12 6 C8.04 6 4.08 6 0 6 C0 4.02 0 2.04 0 0 Z " fill="#846C0A" transform="translate(67,48)"/>
<path d="M0 0 C2.31 0 4.62 0 7 0 C7 2.31 7 4.62 7 7 C4.69 7 2.38 7 0 7 C0 4.69 0 2.38 0 0 Z " fill="#EBBF02" transform="translate(85,60)"/>
<path d="M0 0 C2.31 0 4.62 0 7 0 C7 2.31 7 4.62 7 7 C4.69 7 2.38 7 0 7 C0 4.69 0 2.38 0 0 Z " fill="#AB8C06" transform="translate(60,35)"/>
<path d="M0 0 C2.31 0 4.62 0 7 0 C7 1.98 7 3.96 7 6 C4.69 6 2.38 6 0 6 C0 4.02 0 2.04 0 0 Z " fill="#463D11" transform="translate(110,98)"/>
<path d="M0 0 C2.31 0 4.62 0 7 0 C7 1.98 7 3.96 7 6 C4.69 6 2.38 6 0 6 C0 4.02 0 2.04 0 0 Z " fill="#C7A203" transform="translate(110,92)"/>
<path d="M0 0 C1.98 0 3.96 0 6 0 C6 2.31 6 4.62 6 7 C4.02 7 2.04 7 0 7 C0 4.69 0 2.38 0 0 Z " fill="#B59405" transform="translate(104,85)"/>
<path d="M0 0 C1.98 0 3.96 0 6 0 C6 2.31 6 4.62 6 7 C4.02 7 2.04 7 0 7 C0 4.69 0 2.38 0 0 Z " fill="#2A2513" transform="translate(98,85)"/>
<path d="M0 0 C2.31 0 4.62 0 7 0 C7 1.98 7 3.96 7 6 C4.69 6 2.38 6 0 6 C0 4.02 0 2.04 0 0 Z " fill="#74600B" transform="translate(85,67)"/>
<path d="M0 0 C1.98 0 3.96 0 6 0 C6 2.31 6 4.62 6 7 C4.02 7 2.04 7 0 7 C0 4.69 0 2.38 0 0 Z " fill="#60500D" transform="translate(79,60)"/>
<path d="M0 0 C1.98 0 3.96 0 6 0 C6 2.31 6 4.62 6 7 C4.02 7 2.04 7 0 7 C0 4.69 0 2.38 0 0 Z " fill="#242114" transform="translate(54,35)"/>
<path d="M0 0 C1.98 0 3.96 0 6 0 C6 2.31 6 4.62 6 7 C4.02 7 2.04 7 0 7 C0 4.69 0 2.38 0 0 Z " fill="#F1C401" transform="translate(73,10)"/>
<path d="M0 0 C1.98 0 3.96 0 6 0 C6 2.31 6 4.62 6 7 C4.02 7 2.04 7 0 7 C0 4.69 0 2.38 0 0 Z " fill="#F1C401" transform="translate(42,10)"/>
<path d="M0 0 C1.98 0 3.96 0 6 0 C6 2.31 6 4.62 6 7 C4.02 7 2.04 7 0 7 C0 4.69 0 2.38 0 0 Z " fill="#F0C301" transform="translate(23,10)"/>
<path d="M0 0 C1.98 0 3.96 0 6 0 C6 1.98 6 3.96 6 6 C4.02 6 2.04 6 0 6 C0 4.02 0 2.04 0 0 Z " fill="#967C07" transform="translate(117,179)"/>
<path d="M0 0 C1.98 0 3.96 0 6 0 C6 1.98 6 3.96 6 6 C4.02 6 2.04 6 0 6 C0 4.02 0 2.04 0 0 Z " fill="#C7A203" transform="translate(73,179)"/>
<path d="M0 0 C1.98 0 3.96 0 6 0 C6 1.98 6 3.96 6 6 C4.02 6 2.04 6 0 6 C0 4.02 0 2.04 0 0 Z " fill="#66550D" transform="translate(117,104)"/>
<path d="M0 0 C1.98 0 3.96 0 6 0 C6 1.98 6 3.96 6 6 C4.02 6 2.04 6 0 6 C0 4.02 0 2.04 0 0 Z " fill="#D6AF03" transform="translate(117,98)"/>
<path d="M0 0 C1.98 0 3.96 0 6 0 C6 1.98 6 3.96 6 6 C4.02 6 2.04 6 0 6 C0 4.02 0 2.04 0 0 Z " fill="#373112" transform="translate(104,92)"/>
<path d="M0 0 C1.98 0 3.96 0 6 0 C6 1.98 6 3.96 6 6 C4.02 6 2.04 6 0 6 C0 4.02 0 2.04 0 0 Z " fill="#A28506" transform="translate(98,79)"/>
<path d="M0 0 C1.98 0 3.96 0 6 0 C6 1.98 6 3.96 6 6 C4.02 6 2.04 6 0 6 C0 4.02 0 2.04 0 0 Z " fill="#8B7309" transform="translate(92,73)"/>
<path d="M0 0 C1.98 0 3.96 0 6 0 C6 1.98 6 3.96 6 6 C4.02 6 2.04 6 0 6 C0 4.02 0 2.04 0 0 Z " fill="#F2C501" transform="translate(92,67)"/>
<path d="M0 0 C1.98 0 3.96 0 6 0 C6 1.98 6 3.96 6 6 C4.02 6 2.04 6 0 6 C0 4.02 0 2.04 0 0 Z " fill="#B09006" transform="translate(73,54)"/>
<path d="M0 0 C1.98 0 3.96 0 6 0 C6 1.98 6 3.96 6 6 C4.02 6 2.04 6 0 6 C0 4.02 0 2.04 0 0 Z " fill="#EEC102" transform="translate(23,54)"/>
<path d="M0 0 C1.98 0 3.96 0 6 0 C6 1.98 6 3.96 6 6 C4.02 6 2.04 6 0 6 C0 4.02 0 2.04 0 0 Z " fill="#514410" transform="translate(167,48)"/>
<path d="M0 0 C1.98 0 3.96 0 6 0 C6 1.98 6 3.96 6 6 C4.02 6 2.04 6 0 6 C0 4.02 0 2.04 0 0 Z " fill="#5B4C0E" transform="translate(67,48)"/>
<path d="M0 0 C1.98 0 3.96 0 6 0 C6 1.98 6 3.96 6 6 C4.02 6 2.04 6 0 6 C0 4.02 0 2.04 0 0 Z " fill="#9C8107" transform="translate(23,48)"/>
<path d="M0 0 C1.98 0 3.96 0 6 0 C6 1.98 6 3.96 6 6 C4.02 6 2.04 6 0 6 C0 4.02 0 2.04 0 0 Z " fill="#C09D04" transform="translate(67,42)"/>
<path d="M0 0 C1.98 0 3.96 0 6 0 C6 1.98 6 3.96 6 6 C4.02 6 2.04 6 0 6 C0 4.02 0 2.04 0 0 Z " fill="#967C07" transform="translate(54,29)"/>
<path d="M0 0 C1.98 0 3.96 0 6 0 C6 1.98 6 3.96 6 6 C4.02 6 2.04 6 0 6 C0 4.02 0 2.04 0 0 Z " fill="#7E680B" transform="translate(48,23)"/>
<path d="M0 0 C1.98 0 3.96 0 6 0 C6 1.98 6 3.96 6 6 C4.02 6 2.04 6 0 6 C0 4.02 0 2.04 0 0 Z " fill="#54460E" transform="translate(167,17)"/>
<path d="M0 0 C1.98 0 3.96 0 6 0 C6 1.98 6 3.96 6 6 C4.02 6 2.04 6 0 6 C0 4.02 0 2.04 0 0 Z " fill="#A78906" transform="translate(73,17)"/>
<path d="M0 0 C1.98 0 3.96 0 6 0 C6 1.98 6 3.96 6 6 C4.02 6 2.04 6 0 6 C0 4.02 0 2.04 0 0 Z " fill="#EEC102" transform="translate(48,17)"/>
<path d="M0 0 C1.98 0 3.96 0 6 0 C6 1.98 6 3.96 6 6 C4.02 6 2.04 6 0 6 C0 4.02 0 2.04 0 0 Z " fill="#715E0C" transform="translate(42,17)"/>
<path d="M0 0 C1.98 0 3.96 0 6 0 C6 1.98 6 3.96 6 6 C4.02 6 2.04 6 0 6 C0 4.02 0 2.04 0 0 Z " fill="#9F8306" transform="translate(23,17)"/>
</svg>
