<svg width="731" height="194" viewBox="0 0 731 194" fill="none" xmlns="http://www.w3.org/2000/svg">
<path d="M222.234 55.6034V39.5429H312.82V56.0666L245.52 145.326H314.382V161.386H222.092V144.863L291.523 55.7578H222.234V55.6034Z" fill="black"/>
<path d="M421.728 76.2057V138.333C422.297 144.037 426.99 147.891 436.374 149.125L435.237 163.77C422.297 163.77 412.344 160.533 405.945 154.212C391.299 160.533 376.084 163.77 361.438 163.77C349.778 163.77 341.531 160.533 335.132 154.212C328.734 147.891 326.316 138.95 326.316 126.925C326.316 114.901 329.302 106.576 335.701 100.872C340.536 96.0927 348.356 93.0095 358.31 91.1595C362.007 90.3887 372.814 89.3096 372.814 89.3096L403.528 86.3805V76.2057C403.528 67.8809 401.821 62.1769 398.266 58.477C394.712 54.6229 389.45 53.3897 383.62 53.3897C372.529 53.3897 361.438 53.8522 350.063 55.0855C347.645 55.3938 333.71 56.9354 333.71 56.9354L333.284 41.9817C351.485 38.7443 367.268 36.8942 381.345 36.8942C395.422 36.8942 405.376 40.1317 411.775 46.4523C418.174 52.773 421.728 62.7936 421.728 76.2057ZM344.233 125.384C344.233 140.492 350.631 147.429 362.86 147.429C373.951 147.429 384.9 145.579 395.991 141.725L401.821 139.875V100.101L365.135 103.955C357.599 104.572 352.338 106.422 348.783 110.276C346.081 113.513 344.233 118.446 344.233 125.384Z" fill="black"/>
<path d="M435.313 39.5429H455.21L484.345 145.326H493.725L522.86 39.5429H542.189L507.085 161.386H469.707L435.313 39.5429Z" fill="black"/>
<path d="M643.802 144.634L644.371 159.122C625.739 161.588 609.525 162.976 596.013 162.976C577.95 162.976 565.718 157.889 558.18 147.871C550.641 137.852 547.228 121.976 547.228 100.551C547.228 58.3188 564.722 36.8942 599 36.8942C615.925 36.8942 628.157 41.3641 636.264 50.7663C644.656 59.2436 648.78 72.9615 649.065 91.3034C649.065 91.6117 648.922 95.9275 648.638 99.6267C648.354 103.634 647.927 107.333 647.927 107.333H566.429C566.429 120.589 568.705 130.607 573.967 136.927C578.661 143.246 587.337 146.329 599.569 146.329C607.676 146.483 629.864 145.404 643.802 144.634ZM631.144 93.7695C631.144 78.6644 628.868 68.4916 623.606 62.1721C618.912 55.8526 610.805 52.77 599.711 52.77C588.617 52.77 580.51 55.8526 575.247 62.1721C569.985 68.4916 567.14 79.1268 567.14 92.9989H631.144V93.7695Z" fill="black"/>
<path d="M667.506 162.358V41.1092H685.707V57.4816C699.927 48.0597 714.289 41.727 730.216 38.4834V56.4005C723.248 57.6361 709.739 61.8064 691.964 70.3016L685.565 73.3907V162.976H667.363V162.358H667.506Z" fill="black"/>
<path d="M97 194C150.572 194 194 150.572 194 97C194 43.4283 150.572 0 97 0C43.4284 0 0 43.4283 0 97C0 150.572 43.4284 194 97 194Z" fill="#EF3466"/>
<path fill-rule="evenodd" clip-rule="evenodd" d="M110.211 90.1394C109.573 91.5753 107.978 92.5325 106.383 92.5325H61.0546C60.3428 92.5325 59.9351 93.3439 60.3597 93.9153L108.267 158.378C108.549 158.758 108.474 159.294 108.099 159.582L102.655 163.761C102.262 164.063 101.694 163.955 101.439 163.53L47.37 90.7775C46.2535 89.5011 46.094 87.7462 46.8915 86.3103C47.2105 85.6721 48.1674 84.2362 50.7194 84.2362H96.0754C96.782 84.2362 97.1911 83.4352 96.7769 82.8625L65.7396 39.9447C65.4598 39.5578 65.5458 39.0175 65.9318 38.7367L71.5525 34.6476C71.9386 34.3667 72.4792 34.4515 72.7608 34.8371L109.892 85.6721C110.849 86.9484 111.008 88.7035 110.211 90.1394ZM101.688 41.355C102.078 41.0715 102.624 41.1607 102.903 41.5534L146.416 102.743C147.214 104.02 147.373 105.775 146.576 107.21C145.778 108.806 144.024 109.125 142.748 109.125H97.5858C96.8727 109.125 96.4654 109.939 96.8926 110.51L113.845 133.169C114.129 133.549 114.055 134.087 113.679 134.375L108.19 138.59C107.809 138.882 107.263 138.809 106.973 138.427L83.7348 107.849C82.6183 106.413 82.4588 104.658 83.2563 103.222C83.8943 101.786 85.4893 100.829 87.0842 100.829H132.93C133.635 100.829 134.044 100.032 133.634 99.4589L95.8775 46.6445C95.601 46.2576 95.688 45.72 96.0726 45.4403L101.688 41.355Z" fill="white"/>
</svg>
